<?xml version="1.0" encoding="UTF-8"?>
<svg xmlns="http://www.w3.org/2000/svg" viewBox="0 0 200 200" width="120" height="120">
  <style>
    .devil {
      fill: #ff0000;
      filter: drop-shadow(0 0 4px rgba(255, 0, 0, 0.8));
    }
  </style>
  <path class="devil" d="M100 10c-5 0-10 2-14 6l-10 10c-4 4-6 12-8 20-1 4-6 10-10 14-8 8-8 20 0 28 2 2 6 4 10 4 1 0 2 0 4-1 2-1 3-2 4-3 1-1 0-3-1-3-1-1-3 0-4 1-1 1-3 1-4 1-2 0-4-1-6-2-4-4-4-12 0-16 4-4 10-10 12-16 2-8 4-14 6-16l10-10c2-2 6-4 10-4 4 0 8 2 10 4l10 10c2 2 4 8 6 16 2 6 8 12 12 16 4 4 4 12 0 16-2 1-4 2-6 2-1 0-3 0-4-1-1-1-3-2-4-1-1 0-2 2-1 3 1 1 2 2 4 3 2 1 3 1 4 1 4 0 8-2 10-4 8-8 8-20 0-28-4-4-9-10-10-14-2-8-4-16-8-20l-10-10c-4-4-9-6-14-6zM68 82c-4 0-8 2-10 6-4 8 0 18 8 22 4 2 8 2 12 0 4-2 6-6 8-10 0-2-1-3-3-3-1 0-2 1-2 2-1 2-3 4-5 6-4 2-10 0-12-4-2-4-1-10 3-12 4-2 10-1 12 3 1 1 3 1 4 0 1-1 1-3 0-4-2-4-6-6-10-6h-5zM132 82c-4 0-8 2-10 6-1 1-1 3 0 4 1 1 3 1 4 0 2-4 8-5 12-3 4 2 5 8 3 12-2 4-8 6-12 4-2-2-4-4-5-6 0-1-1-2-2-2-2 0-3 1-3 3 2 4 4 8 8 10 4 2 8 2 12 0 8-4 12-14 8-22-2-4-6-6-10-6h-5zM100 122c-8 0-14 6-14 14 0 5 2 10 6 12 4 3 8 3 12 0 2-1 2-3 0-4-2-2-4-1-5 0-2 1-5 1-7 0-2-2-3-4-3-7 0-4 4-7 8-7h6c4 0 8 3 8 7 0 3-1 5-3 7-2 1-5 1-7 0-1-1-3-2-5 0-2 1-2 3 0 4 4 3 8 3 12 0 4-2 6-7 6-12 0-8-6-14-14-14z"/>
</svg>
